<?xml version="1.0" encoding="utf-8"?>
<svg xmlns="http://www.w3.org/2000/svg" viewBox="0 0 400 400" width="400px" height="400px" xmlns:bx="https://boxy-svg.com"><defs><linearGradient bx:pinned="true" id="color-0"><stop style="stop-color: rgb(0, 120, 212);" offset="0"/><stop style="stop-color: rgb(0, 87, 153);" offset="1"/></linearGradient><bx:export><bx:file format="svg" excluded="true"/><bx:file format="svg" path="Untitled 2.svg" excluded="true"/><bx:file format="svg" path="Untitled 3.svg"/></bx:export><linearGradient id="color-0-0" href="#color-0" gradientUnits="userSpaceOnUse" x1="266.013" y1="68.264" x2="266.013" y2="418.264" gradientTransform="matrix(0.679174, -0.733974, 0.611083, 0.565453, -175.427011, 202.558748)"/></defs><g style="pointer-events: none;"><path style="fill: url(&quot;#color-0-0&quot;); stroke-linecap: round; stroke-linejoin: round; pointer-events: none;" d="M 48.445 25 H 351.555 A 23.445 23.445 0 0 1 375 48.445 V 375 H 48.445 A 23.445 23.445 0 0 1 25 351.555 V 48.445 A 23.445 23.445 0 0 1 48.445 25 Z" bx:shape="rect 25 25 350 350 23.445 23.445 0 23.445 1@89f35fa4"/><path d="M 109.064 381.693 C 98.935 381.693 89.762 380.1 81.544 376.914 C 73.326 373.728 66.829 369.07 62.051 362.939 C 57.274 356.809 54.885 349.347 54.885 340.555 C 54.885 332.892 56.628 326.62 60.116 321.74 C 63.604 316.86 68.311 312.968 74.235 310.064 C 80.159 307.161 86.752 304.983 94.014 303.531 C 101.276 302.079 108.73 300.95 116.374 300.144 C 126.024 299.257 133.811 298.49 139.735 297.845 C 145.66 297.199 149.984 296.171 152.708 294.759 C 155.431 293.348 156.792 291.069 156.792 287.923 L 156.792 287.318 C 156.792 279.655 154.236 273.727 149.125 269.532 C 144.012 265.338 136.439 263.241 126.407 263.241 C 115.992 263.241 107.751 265.157 101.683 268.988 C 95.615 272.82 91.434 277.155 89.141 281.994 L 59.758 276.308 C 63.293 268.08 68.429 261.446 75.166 256.405 C 81.902 251.363 89.642 247.673 98.385 245.334 C 107.129 242.994 116.278 241.825 125.833 241.825 C 132.235 241.825 139.019 242.45 146.185 243.7 C 153.353 244.95 160.114 247.249 166.467 250.597 C 172.822 253.944 178.006 258.723 182.019 264.934 C 186.032 271.146 188.038 279.171 188.038 289.012 L 188.038 378.789 L 157.51 378.789 L 157.51 360.277 L 156.364 360.277 C 154.452 363.585 151.466 366.892 147.405 370.199 C 143.343 373.506 138.159 376.249 131.853 378.426 C 125.546 380.604 117.95 381.693 109.064 381.693 Z M 115.8 360.641 C 124.496 360.641 131.901 359.209 138.017 356.346 C 144.132 353.481 148.814 349.71 152.062 345.031 C 155.312 340.353 156.937 335.393 156.937 330.15 L 156.937 312.607 C 155.79 313.493 153.64 314.34 150.487 315.147 C 147.334 315.954 143.75 316.639 139.735 317.204 C 135.722 317.768 131.805 318.272 127.984 318.716 C 124.162 319.159 120.96 319.502 118.379 319.745 C 112.36 320.471 106.866 321.58 101.898 323.072 C 96.929 324.564 92.939 326.742 89.93 329.605 C 86.92 332.469 85.415 336.24 85.415 340.918 C 85.415 347.452 88.281 352.373 94.014 355.68 C 99.747 358.987 107.01 360.641 115.8 360.641 Z M 337.658 276.671 L 309.423 280.785 C 307.607 276.267 304.238 272.113 299.317 268.322 C 294.396 264.532 287.062 262.636 277.316 262.636 C 268.525 262.636 261.192 264.31 255.316 267.657 C 249.439 271.005 246.5 275.26 246.5 280.421 C 246.5 284.939 248.483 288.609 252.449 291.432 C 256.414 294.256 262.744 296.514 271.439 298.208 L 297.096 303.047 C 311.716 305.87 322.657 310.307 329.918 316.357 C 337.181 322.406 340.812 330.15 340.812 339.588 C 340.812 347.735 338.041 354.974 332.499 361.307 C 326.957 367.638 319.265 372.598 309.423 376.187 C 299.581 379.778 288.21 381.573 275.31 381.573 C 257.345 381.573 242.726 378.306 231.451 371.772 C 220.175 365.238 213.248 356.042 210.668 344.186 L 240.623 340.313 C 242.534 346.928 246.429 351.929 252.306 355.317 C 258.182 358.704 265.802 360.398 275.167 360.398 C 285.295 360.398 293.44 358.583 299.603 354.953 C 305.768 351.323 308.85 346.927 308.85 341.765 C 308.85 333.215 301.3 327.447 286.202 324.463 L 259.114 319.381 C 244.112 316.477 233.052 311.9 225.932 305.649 C 218.813 299.398 215.253 291.513 215.253 281.994 C 215.253 274.008 217.905 266.991 223.208 260.941 C 228.512 254.892 235.822 250.193 245.138 246.845 C 254.455 243.498 265.086 241.825 277.03 241.825 C 294.421 241.825 308.06 245.011 317.949 251.383 C 327.84 257.755 334.409 266.185 337.658 276.671 Z" style="fill: rgb(255, 255, 255); text-wrap-mode: nowrap; pointer-events: none;"/></g></svg>